<mxfile modified="2024-04-09T08:51:34.466Z" host="Electron" agent="Mozilla/5.0 (Windows NT 10.0; Win64; x64) AppleWebKit/537.36 (KHTML, like Gecko) draw.io/24.1.0 Chrome/120.0.6099.109 Electron/28.1.0 Safari/537.36" etag="OVIMtjyGPmuXLVf4NenX" version="24.1.0" type="device">
  <diagram id="7gcUSTIZ7YSJ5vT40chW" name="Page-1">
    <mxGraphModel dx="1434" dy="836" grid="1" gridSize="10" guides="1" tooltips="1" connect="1" arrows="1" fold="1" page="1" pageScale="1" pageWidth="1169" pageHeight="827" math="0" shadow="0">
      <root>
        <mxCell id="0" />
        <mxCell id="1" parent="0" />
        <mxCell id="ttU8PozmgUQWFSr6I-Ll-212" value="" style="rounded=0;whiteSpace=wrap;html=1;fillColor=#E6D0DE;strokeWidth=1;" parent="1" vertex="1">
          <mxGeometry x="520" y="160" width="120" height="120" as="geometry" />
        </mxCell>
        <mxCell id="ttU8PozmgUQWFSr6I-Ll-230" value="" style="rounded=0;whiteSpace=wrap;html=1;fillColor=#E6D0DE;strokeWidth=1;" parent="1" vertex="1">
          <mxGeometry x="160" y="520" width="120" height="120" as="geometry" />
        </mxCell>
        <mxCell id="ttU8PozmgUQWFSr6I-Ll-264" value="" style="group" parent="1" vertex="1" connectable="0">
          <mxGeometry x="160" y="160" width="120" height="120" as="geometry" />
        </mxCell>
        <mxCell id="ttU8PozmgUQWFSr6I-Ll-254" value="&lt;span style=&quot;font-size: 16px;&quot;&gt;&amp;nbsp;&lt;/span&gt;" style="whiteSpace=wrap;html=1;aspect=fixed;container=0;" parent="ttU8PozmgUQWFSr6I-Ll-264" vertex="1">
          <mxGeometry width="40" height="40" as="geometry" />
        </mxCell>
        <mxCell id="ttU8PozmgUQWFSr6I-Ll-256" value="&lt;span style=&quot;font-size: 16px;&quot;&gt;&amp;nbsp;&lt;/span&gt;" style="whiteSpace=wrap;html=1;aspect=fixed;container=0;" parent="ttU8PozmgUQWFSr6I-Ll-264" vertex="1">
          <mxGeometry x="40" width="40" height="40" as="geometry" />
        </mxCell>
        <mxCell id="ttU8PozmgUQWFSr6I-Ll-257" value="&lt;span style=&quot;font-size: 16px;&quot;&gt;&amp;nbsp;&lt;/span&gt;" style="whiteSpace=wrap;html=1;aspect=fixed;container=0;" parent="ttU8PozmgUQWFSr6I-Ll-264" vertex="1">
          <mxGeometry x="80" width="40" height="40" as="geometry" />
        </mxCell>
        <mxCell id="ttU8PozmgUQWFSr6I-Ll-258" value="&lt;span style=&quot;font-size: 16px;&quot;&gt;&amp;nbsp;&lt;/span&gt;" style="whiteSpace=wrap;html=1;aspect=fixed;container=0;" parent="ttU8PozmgUQWFSr6I-Ll-264" vertex="1">
          <mxGeometry y="40" width="40" height="40" as="geometry" />
        </mxCell>
        <mxCell id="ttU8PozmgUQWFSr6I-Ll-259" value="&lt;span style=&quot;font-size: 16px;&quot;&gt;&amp;nbsp;&lt;/span&gt;" style="whiteSpace=wrap;html=1;aspect=fixed;container=0;" parent="ttU8PozmgUQWFSr6I-Ll-264" vertex="1">
          <mxGeometry x="40" y="40" width="40" height="40" as="geometry" />
        </mxCell>
        <mxCell id="ttU8PozmgUQWFSr6I-Ll-260" value="&lt;span style=&quot;font-size: 16px;&quot;&gt;&amp;nbsp;&lt;/span&gt;" style="whiteSpace=wrap;html=1;aspect=fixed;container=0;" parent="ttU8PozmgUQWFSr6I-Ll-264" vertex="1">
          <mxGeometry x="80" y="40" width="40" height="40" as="geometry" />
        </mxCell>
        <mxCell id="ttU8PozmgUQWFSr6I-Ll-261" value="&lt;span style=&quot;font-size: 16px;&quot;&gt;&amp;nbsp;&lt;/span&gt;" style="whiteSpace=wrap;html=1;aspect=fixed;container=0;" parent="ttU8PozmgUQWFSr6I-Ll-264" vertex="1">
          <mxGeometry y="80" width="40" height="40" as="geometry" />
        </mxCell>
        <mxCell id="ttU8PozmgUQWFSr6I-Ll-262" value="&lt;span style=&quot;font-size: 16px;&quot;&gt;&amp;nbsp;&lt;/span&gt;" style="whiteSpace=wrap;html=1;aspect=fixed;container=0;" parent="ttU8PozmgUQWFSr6I-Ll-264" vertex="1">
          <mxGeometry x="40" y="80" width="40" height="40" as="geometry" />
        </mxCell>
        <mxCell id="ttU8PozmgUQWFSr6I-Ll-263" value="&lt;span style=&quot;font-size: 16px;&quot;&gt;&amp;nbsp;&lt;/span&gt;" style="whiteSpace=wrap;html=1;aspect=fixed;container=0;" parent="ttU8PozmgUQWFSr6I-Ll-264" vertex="1">
          <mxGeometry x="80" y="80" width="40" height="40" as="geometry" />
        </mxCell>
        <mxCell id="ttU8PozmgUQWFSr6I-Ll-265" value="" style="group" parent="1" vertex="1" connectable="0">
          <mxGeometry x="280" y="160" width="120" height="120" as="geometry" />
        </mxCell>
        <mxCell id="ttU8PozmgUQWFSr6I-Ll-266" value="&lt;span style=&quot;font-size: 16px;&quot;&gt;&amp;nbsp;&lt;/span&gt;" style="whiteSpace=wrap;html=1;aspect=fixed;container=0;" parent="ttU8PozmgUQWFSr6I-Ll-265" vertex="1">
          <mxGeometry width="40" height="40" as="geometry" />
        </mxCell>
        <mxCell id="ttU8PozmgUQWFSr6I-Ll-267" value="&lt;span style=&quot;font-size: 16px;&quot;&gt;&amp;nbsp;&lt;/span&gt;" style="whiteSpace=wrap;html=1;aspect=fixed;container=0;" parent="ttU8PozmgUQWFSr6I-Ll-265" vertex="1">
          <mxGeometry x="40" width="40" height="40" as="geometry" />
        </mxCell>
        <mxCell id="ttU8PozmgUQWFSr6I-Ll-268" value="&lt;span style=&quot;font-size: 16px;&quot;&gt;&amp;nbsp;&lt;/span&gt;" style="whiteSpace=wrap;html=1;aspect=fixed;container=0;" parent="ttU8PozmgUQWFSr6I-Ll-265" vertex="1">
          <mxGeometry x="80" width="40" height="40" as="geometry" />
        </mxCell>
        <mxCell id="ttU8PozmgUQWFSr6I-Ll-269" value="&lt;span style=&quot;font-size: 16px;&quot;&gt;&amp;nbsp;&lt;/span&gt;" style="whiteSpace=wrap;html=1;aspect=fixed;container=0;" parent="ttU8PozmgUQWFSr6I-Ll-265" vertex="1">
          <mxGeometry y="40" width="40" height="40" as="geometry" />
        </mxCell>
        <mxCell id="ttU8PozmgUQWFSr6I-Ll-270" value="&lt;span style=&quot;font-size: 16px;&quot;&gt;&amp;nbsp;&lt;/span&gt;" style="whiteSpace=wrap;html=1;aspect=fixed;container=0;" parent="ttU8PozmgUQWFSr6I-Ll-265" vertex="1">
          <mxGeometry x="40" y="40" width="40" height="40" as="geometry" />
        </mxCell>
        <mxCell id="ttU8PozmgUQWFSr6I-Ll-271" value="&lt;span style=&quot;font-size: 16px;&quot;&gt;&amp;nbsp;&lt;/span&gt;" style="whiteSpace=wrap;html=1;aspect=fixed;container=0;" parent="ttU8PozmgUQWFSr6I-Ll-265" vertex="1">
          <mxGeometry x="80" y="40" width="40" height="40" as="geometry" />
        </mxCell>
        <mxCell id="ttU8PozmgUQWFSr6I-Ll-272" value="&lt;span style=&quot;font-size: 16px;&quot;&gt;&amp;nbsp;&lt;/span&gt;" style="whiteSpace=wrap;html=1;aspect=fixed;container=0;" parent="ttU8PozmgUQWFSr6I-Ll-265" vertex="1">
          <mxGeometry y="80" width="40" height="40" as="geometry" />
        </mxCell>
        <mxCell id="ttU8PozmgUQWFSr6I-Ll-273" value="&lt;span style=&quot;font-size: 16px;&quot;&gt;&amp;nbsp;&lt;/span&gt;" style="whiteSpace=wrap;html=1;aspect=fixed;container=0;" parent="ttU8PozmgUQWFSr6I-Ll-265" vertex="1">
          <mxGeometry x="40" y="80" width="40" height="40" as="geometry" />
        </mxCell>
        <mxCell id="ttU8PozmgUQWFSr6I-Ll-274" value="&lt;span style=&quot;font-size: 16px;&quot;&gt;&amp;nbsp;&lt;/span&gt;" style="whiteSpace=wrap;html=1;aspect=fixed;container=0;" parent="ttU8PozmgUQWFSr6I-Ll-265" vertex="1">
          <mxGeometry x="80" y="80" width="40" height="40" as="geometry" />
        </mxCell>
        <mxCell id="ttU8PozmgUQWFSr6I-Ll-275" value="" style="group" parent="1" vertex="1" connectable="0">
          <mxGeometry x="400" y="160" width="120" height="120" as="geometry" />
        </mxCell>
        <mxCell id="ttU8PozmgUQWFSr6I-Ll-276" value="&lt;span style=&quot;font-size: 16px;&quot;&gt;&amp;nbsp;&lt;/span&gt;" style="whiteSpace=wrap;html=1;aspect=fixed;container=0;" parent="ttU8PozmgUQWFSr6I-Ll-275" vertex="1">
          <mxGeometry width="40" height="40" as="geometry" />
        </mxCell>
        <mxCell id="ttU8PozmgUQWFSr6I-Ll-277" value="&lt;span style=&quot;font-size: 16px;&quot;&gt;&amp;nbsp;&lt;/span&gt;" style="whiteSpace=wrap;html=1;aspect=fixed;container=0;" parent="ttU8PozmgUQWFSr6I-Ll-275" vertex="1">
          <mxGeometry x="40" width="40" height="40" as="geometry" />
        </mxCell>
        <mxCell id="ttU8PozmgUQWFSr6I-Ll-278" value="&lt;span style=&quot;font-size: 16px;&quot;&gt;&amp;nbsp;&lt;/span&gt;" style="whiteSpace=wrap;html=1;aspect=fixed;container=0;" parent="ttU8PozmgUQWFSr6I-Ll-275" vertex="1">
          <mxGeometry x="80" width="40" height="40" as="geometry" />
        </mxCell>
        <mxCell id="ttU8PozmgUQWFSr6I-Ll-279" value="&lt;span style=&quot;font-size: 16px;&quot;&gt;&amp;nbsp;&lt;/span&gt;" style="whiteSpace=wrap;html=1;aspect=fixed;container=0;" parent="ttU8PozmgUQWFSr6I-Ll-275" vertex="1">
          <mxGeometry y="40" width="40" height="40" as="geometry" />
        </mxCell>
        <mxCell id="ttU8PozmgUQWFSr6I-Ll-280" value="&lt;span style=&quot;font-size: 16px;&quot;&gt;&amp;nbsp;&lt;/span&gt;" style="whiteSpace=wrap;html=1;aspect=fixed;container=0;" parent="ttU8PozmgUQWFSr6I-Ll-275" vertex="1">
          <mxGeometry x="40" y="40" width="40" height="40" as="geometry" />
        </mxCell>
        <mxCell id="ttU8PozmgUQWFSr6I-Ll-281" value="&lt;span style=&quot;font-size: 16px;&quot;&gt;&amp;nbsp;&lt;/span&gt;" style="whiteSpace=wrap;html=1;aspect=fixed;container=0;" parent="ttU8PozmgUQWFSr6I-Ll-275" vertex="1">
          <mxGeometry x="80" y="40" width="40" height="40" as="geometry" />
        </mxCell>
        <mxCell id="ttU8PozmgUQWFSr6I-Ll-282" value="&lt;span style=&quot;font-size: 16px;&quot;&gt;&amp;nbsp;&lt;/span&gt;" style="whiteSpace=wrap;html=1;aspect=fixed;container=0;" parent="ttU8PozmgUQWFSr6I-Ll-275" vertex="1">
          <mxGeometry y="80" width="40" height="40" as="geometry" />
        </mxCell>
        <mxCell id="ttU8PozmgUQWFSr6I-Ll-283" value="&lt;span style=&quot;font-size: 16px;&quot;&gt;&amp;nbsp;&lt;/span&gt;" style="whiteSpace=wrap;html=1;aspect=fixed;container=0;" parent="ttU8PozmgUQWFSr6I-Ll-275" vertex="1">
          <mxGeometry x="40" y="80" width="40" height="40" as="geometry" />
        </mxCell>
        <mxCell id="ttU8PozmgUQWFSr6I-Ll-284" value="&lt;span style=&quot;font-size: 16px;&quot;&gt;&amp;nbsp;&lt;/span&gt;" style="whiteSpace=wrap;html=1;aspect=fixed;container=0;" parent="ttU8PozmgUQWFSr6I-Ll-275" vertex="1">
          <mxGeometry x="80" y="80" width="40" height="40" as="geometry" />
        </mxCell>
        <mxCell id="ttU8PozmgUQWFSr6I-Ll-295" value="" style="group" parent="1" vertex="1" connectable="0">
          <mxGeometry x="160" y="280" width="120" height="120" as="geometry" />
        </mxCell>
        <mxCell id="ttU8PozmgUQWFSr6I-Ll-296" value="&lt;span style=&quot;font-size: 16px;&quot;&gt;&amp;nbsp;&lt;/span&gt;" style="whiteSpace=wrap;html=1;aspect=fixed;container=0;" parent="ttU8PozmgUQWFSr6I-Ll-295" vertex="1">
          <mxGeometry width="40" height="40" as="geometry" />
        </mxCell>
        <mxCell id="ttU8PozmgUQWFSr6I-Ll-297" value="&lt;span style=&quot;font-size: 16px;&quot;&gt;&amp;nbsp;&lt;/span&gt;" style="whiteSpace=wrap;html=1;aspect=fixed;container=0;" parent="ttU8PozmgUQWFSr6I-Ll-295" vertex="1">
          <mxGeometry x="40" width="40" height="40" as="geometry" />
        </mxCell>
        <mxCell id="ttU8PozmgUQWFSr6I-Ll-298" value="&lt;span style=&quot;font-size: 16px;&quot;&gt;&amp;nbsp;&lt;/span&gt;" style="whiteSpace=wrap;html=1;aspect=fixed;container=0;" parent="ttU8PozmgUQWFSr6I-Ll-295" vertex="1">
          <mxGeometry x="80" width="40" height="40" as="geometry" />
        </mxCell>
        <mxCell id="ttU8PozmgUQWFSr6I-Ll-299" value="&lt;span style=&quot;font-size: 16px;&quot;&gt;&amp;nbsp;&lt;/span&gt;" style="whiteSpace=wrap;html=1;aspect=fixed;container=0;" parent="ttU8PozmgUQWFSr6I-Ll-295" vertex="1">
          <mxGeometry y="40" width="40" height="40" as="geometry" />
        </mxCell>
        <mxCell id="ttU8PozmgUQWFSr6I-Ll-300" value="&lt;span style=&quot;font-size: 16px;&quot;&gt;&amp;nbsp;&lt;/span&gt;" style="whiteSpace=wrap;html=1;aspect=fixed;container=0;" parent="ttU8PozmgUQWFSr6I-Ll-295" vertex="1">
          <mxGeometry x="40" y="40" width="40" height="40" as="geometry" />
        </mxCell>
        <mxCell id="ttU8PozmgUQWFSr6I-Ll-301" value="&lt;span style=&quot;font-size: 16px;&quot;&gt;&amp;nbsp;&lt;/span&gt;" style="whiteSpace=wrap;html=1;aspect=fixed;container=0;" parent="ttU8PozmgUQWFSr6I-Ll-295" vertex="1">
          <mxGeometry x="80" y="40" width="40" height="40" as="geometry" />
        </mxCell>
        <mxCell id="ttU8PozmgUQWFSr6I-Ll-302" value="&lt;span style=&quot;font-size: 16px;&quot;&gt;&amp;nbsp;&lt;/span&gt;" style="whiteSpace=wrap;html=1;aspect=fixed;container=0;" parent="ttU8PozmgUQWFSr6I-Ll-295" vertex="1">
          <mxGeometry y="80" width="40" height="40" as="geometry" />
        </mxCell>
        <mxCell id="ttU8PozmgUQWFSr6I-Ll-303" value="&lt;span style=&quot;font-size: 16px;&quot;&gt;&amp;nbsp;&lt;/span&gt;" style="whiteSpace=wrap;html=1;aspect=fixed;container=0;" parent="ttU8PozmgUQWFSr6I-Ll-295" vertex="1">
          <mxGeometry x="40" y="80" width="40" height="40" as="geometry" />
        </mxCell>
        <mxCell id="ttU8PozmgUQWFSr6I-Ll-304" value="&lt;span style=&quot;font-size: 16px;&quot;&gt;&amp;nbsp;&lt;/span&gt;" style="whiteSpace=wrap;html=1;aspect=fixed;container=0;" parent="ttU8PozmgUQWFSr6I-Ll-295" vertex="1">
          <mxGeometry x="80" y="80" width="40" height="40" as="geometry" />
        </mxCell>
        <mxCell id="ttU8PozmgUQWFSr6I-Ll-305" value="" style="group" parent="1" vertex="1" connectable="0">
          <mxGeometry x="280" y="280" width="120" height="120" as="geometry" />
        </mxCell>
        <mxCell id="ttU8PozmgUQWFSr6I-Ll-306" value="&lt;span style=&quot;font-size: 16px;&quot;&gt;&amp;nbsp;&lt;/span&gt;" style="whiteSpace=wrap;html=1;aspect=fixed;container=0;" parent="ttU8PozmgUQWFSr6I-Ll-305" vertex="1">
          <mxGeometry width="40" height="40" as="geometry" />
        </mxCell>
        <mxCell id="ttU8PozmgUQWFSr6I-Ll-307" value="&lt;span style=&quot;font-size: 16px;&quot;&gt;&amp;nbsp;&lt;/span&gt;" style="whiteSpace=wrap;html=1;aspect=fixed;container=0;" parent="ttU8PozmgUQWFSr6I-Ll-305" vertex="1">
          <mxGeometry x="40" width="40" height="40" as="geometry" />
        </mxCell>
        <mxCell id="ttU8PozmgUQWFSr6I-Ll-308" value="&lt;span style=&quot;font-size: 16px;&quot;&gt;&amp;nbsp;&lt;/span&gt;" style="whiteSpace=wrap;html=1;aspect=fixed;container=0;" parent="ttU8PozmgUQWFSr6I-Ll-305" vertex="1">
          <mxGeometry x="80" width="40" height="40" as="geometry" />
        </mxCell>
        <mxCell id="ttU8PozmgUQWFSr6I-Ll-309" value="&lt;span style=&quot;font-size: 16px;&quot;&gt;&amp;nbsp;&lt;/span&gt;" style="whiteSpace=wrap;html=1;aspect=fixed;container=0;" parent="ttU8PozmgUQWFSr6I-Ll-305" vertex="1">
          <mxGeometry y="40" width="40" height="40" as="geometry" />
        </mxCell>
        <mxCell id="ttU8PozmgUQWFSr6I-Ll-310" value="&lt;span style=&quot;font-size: 16px;&quot;&gt;&amp;nbsp;&lt;/span&gt;" style="whiteSpace=wrap;html=1;aspect=fixed;container=0;" parent="ttU8PozmgUQWFSr6I-Ll-305" vertex="1">
          <mxGeometry x="40" y="40" width="40" height="40" as="geometry" />
        </mxCell>
        <mxCell id="ttU8PozmgUQWFSr6I-Ll-311" value="&lt;span style=&quot;font-size: 16px;&quot;&gt;&amp;nbsp;&lt;/span&gt;" style="whiteSpace=wrap;html=1;aspect=fixed;container=0;" parent="ttU8PozmgUQWFSr6I-Ll-305" vertex="1">
          <mxGeometry x="80" y="40" width="40" height="40" as="geometry" />
        </mxCell>
        <mxCell id="ttU8PozmgUQWFSr6I-Ll-312" value="&lt;span style=&quot;font-size: 16px;&quot;&gt;&amp;nbsp;&lt;/span&gt;" style="whiteSpace=wrap;html=1;aspect=fixed;container=0;" parent="ttU8PozmgUQWFSr6I-Ll-305" vertex="1">
          <mxGeometry y="80" width="40" height="40" as="geometry" />
        </mxCell>
        <mxCell id="ttU8PozmgUQWFSr6I-Ll-313" value="&lt;span style=&quot;font-size: 16px;&quot;&gt;&amp;nbsp;&lt;/span&gt;" style="whiteSpace=wrap;html=1;aspect=fixed;container=0;" parent="ttU8PozmgUQWFSr6I-Ll-305" vertex="1">
          <mxGeometry x="40" y="80" width="40" height="40" as="geometry" />
        </mxCell>
        <mxCell id="ttU8PozmgUQWFSr6I-Ll-314" value="&lt;span style=&quot;font-size: 16px;&quot;&gt;&amp;nbsp;&lt;/span&gt;" style="whiteSpace=wrap;html=1;aspect=fixed;container=0;" parent="ttU8PozmgUQWFSr6I-Ll-305" vertex="1">
          <mxGeometry x="80" y="80" width="40" height="40" as="geometry" />
        </mxCell>
        <mxCell id="ttU8PozmgUQWFSr6I-Ll-315" value="" style="group" parent="1" vertex="1" connectable="0">
          <mxGeometry x="400" y="280" width="120" height="240" as="geometry" />
        </mxCell>
        <mxCell id="ttU8PozmgUQWFSr6I-Ll-316" value="&lt;span style=&quot;font-size: 16px;&quot;&gt;&amp;nbsp;&lt;/span&gt;" style="whiteSpace=wrap;html=1;aspect=fixed;container=0;" parent="ttU8PozmgUQWFSr6I-Ll-315" vertex="1">
          <mxGeometry width="40" height="40" as="geometry" />
        </mxCell>
        <mxCell id="ttU8PozmgUQWFSr6I-Ll-317" value="&lt;span style=&quot;font-size: 16px;&quot;&gt;&amp;nbsp;&lt;/span&gt;" style="whiteSpace=wrap;html=1;aspect=fixed;container=0;" parent="ttU8PozmgUQWFSr6I-Ll-315" vertex="1">
          <mxGeometry x="40" width="40" height="40" as="geometry" />
        </mxCell>
        <mxCell id="ttU8PozmgUQWFSr6I-Ll-318" value="&lt;span style=&quot;font-size: 16px;&quot;&gt;&amp;nbsp;&lt;/span&gt;" style="whiteSpace=wrap;html=1;aspect=fixed;container=0;" parent="ttU8PozmgUQWFSr6I-Ll-315" vertex="1">
          <mxGeometry x="80" width="40" height="40" as="geometry" />
        </mxCell>
        <mxCell id="ttU8PozmgUQWFSr6I-Ll-319" value="&lt;span style=&quot;font-size: 16px;&quot;&gt;&amp;nbsp;&lt;/span&gt;" style="whiteSpace=wrap;html=1;aspect=fixed;container=0;" parent="ttU8PozmgUQWFSr6I-Ll-315" vertex="1">
          <mxGeometry y="40" width="40" height="40" as="geometry" />
        </mxCell>
        <mxCell id="ttU8PozmgUQWFSr6I-Ll-320" value="&lt;span style=&quot;font-size: 16px;&quot;&gt;&amp;nbsp;&lt;/span&gt;" style="whiteSpace=wrap;html=1;aspect=fixed;container=0;" parent="ttU8PozmgUQWFSr6I-Ll-315" vertex="1">
          <mxGeometry x="40" y="40" width="40" height="40" as="geometry" />
        </mxCell>
        <mxCell id="ttU8PozmgUQWFSr6I-Ll-321" value="&lt;span style=&quot;font-size: 16px;&quot;&gt;&amp;nbsp;&lt;/span&gt;" style="whiteSpace=wrap;html=1;aspect=fixed;container=0;" parent="ttU8PozmgUQWFSr6I-Ll-315" vertex="1">
          <mxGeometry x="80" y="40" width="40" height="40" as="geometry" />
        </mxCell>
        <mxCell id="ttU8PozmgUQWFSr6I-Ll-322" value="&lt;span style=&quot;font-size: 16px;&quot;&gt;&amp;nbsp;&lt;/span&gt;" style="whiteSpace=wrap;html=1;aspect=fixed;container=0;" parent="ttU8PozmgUQWFSr6I-Ll-315" vertex="1">
          <mxGeometry y="80" width="40" height="40" as="geometry" />
        </mxCell>
        <mxCell id="ttU8PozmgUQWFSr6I-Ll-323" value="&lt;span style=&quot;font-size: 16px;&quot;&gt;&amp;nbsp;&lt;/span&gt;" style="whiteSpace=wrap;html=1;aspect=fixed;container=0;" parent="ttU8PozmgUQWFSr6I-Ll-315" vertex="1">
          <mxGeometry x="40" y="80" width="40" height="40" as="geometry" />
        </mxCell>
        <mxCell id="ttU8PozmgUQWFSr6I-Ll-324" value="&lt;span style=&quot;font-size: 16px;&quot;&gt;&amp;nbsp;&lt;/span&gt;" style="whiteSpace=wrap;html=1;aspect=fixed;container=0;" parent="ttU8PozmgUQWFSr6I-Ll-315" vertex="1">
          <mxGeometry x="80" y="80" width="40" height="40" as="geometry" />
        </mxCell>
        <mxCell id="ttU8PozmgUQWFSr6I-Ll-325" value="" style="group" parent="1" vertex="1" connectable="0">
          <mxGeometry x="160" y="400" width="120" height="120" as="geometry" />
        </mxCell>
        <mxCell id="ttU8PozmgUQWFSr6I-Ll-326" value="&lt;span style=&quot;font-size: 16px;&quot;&gt;&amp;nbsp;&lt;/span&gt;" style="whiteSpace=wrap;html=1;aspect=fixed;container=0;" parent="ttU8PozmgUQWFSr6I-Ll-325" vertex="1">
          <mxGeometry width="40" height="40" as="geometry" />
        </mxCell>
        <mxCell id="ttU8PozmgUQWFSr6I-Ll-327" value="&lt;span style=&quot;font-size: 16px;&quot;&gt;&amp;nbsp;&lt;/span&gt;" style="whiteSpace=wrap;html=1;aspect=fixed;container=0;" parent="ttU8PozmgUQWFSr6I-Ll-325" vertex="1">
          <mxGeometry x="40" width="40" height="40" as="geometry" />
        </mxCell>
        <mxCell id="ttU8PozmgUQWFSr6I-Ll-328" value="&lt;span style=&quot;font-size: 16px;&quot;&gt;&amp;nbsp;&lt;/span&gt;" style="whiteSpace=wrap;html=1;aspect=fixed;container=0;" parent="ttU8PozmgUQWFSr6I-Ll-325" vertex="1">
          <mxGeometry x="80" width="40" height="40" as="geometry" />
        </mxCell>
        <mxCell id="ttU8PozmgUQWFSr6I-Ll-329" value="&lt;span style=&quot;font-size: 16px;&quot;&gt;&amp;nbsp;&lt;/span&gt;" style="whiteSpace=wrap;html=1;aspect=fixed;container=0;" parent="ttU8PozmgUQWFSr6I-Ll-325" vertex="1">
          <mxGeometry y="40" width="40" height="40" as="geometry" />
        </mxCell>
        <mxCell id="ttU8PozmgUQWFSr6I-Ll-330" value="&lt;span style=&quot;font-size: 16px;&quot;&gt;&amp;nbsp;&lt;/span&gt;" style="whiteSpace=wrap;html=1;aspect=fixed;container=0;" parent="ttU8PozmgUQWFSr6I-Ll-325" vertex="1">
          <mxGeometry x="40" y="40" width="40" height="40" as="geometry" />
        </mxCell>
        <mxCell id="ttU8PozmgUQWFSr6I-Ll-331" value="&lt;span style=&quot;font-size: 16px;&quot;&gt;&amp;nbsp;&lt;/span&gt;" style="whiteSpace=wrap;html=1;aspect=fixed;container=0;" parent="ttU8PozmgUQWFSr6I-Ll-325" vertex="1">
          <mxGeometry x="80" y="40" width="40" height="40" as="geometry" />
        </mxCell>
        <mxCell id="ttU8PozmgUQWFSr6I-Ll-332" value="&lt;span style=&quot;font-size: 16px;&quot;&gt;&amp;nbsp;&lt;/span&gt;" style="whiteSpace=wrap;html=1;aspect=fixed;container=0;" parent="ttU8PozmgUQWFSr6I-Ll-325" vertex="1">
          <mxGeometry y="80" width="40" height="40" as="geometry" />
        </mxCell>
        <mxCell id="ttU8PozmgUQWFSr6I-Ll-333" value="&lt;span style=&quot;font-size: 16px;&quot;&gt;&amp;nbsp;&lt;/span&gt;" style="whiteSpace=wrap;html=1;aspect=fixed;container=0;" parent="ttU8PozmgUQWFSr6I-Ll-325" vertex="1">
          <mxGeometry x="40" y="80" width="40" height="40" as="geometry" />
        </mxCell>
        <mxCell id="ttU8PozmgUQWFSr6I-Ll-334" value="&lt;span style=&quot;font-size: 16px;&quot;&gt;&amp;nbsp;&lt;/span&gt;" style="whiteSpace=wrap;html=1;aspect=fixed;container=0;" parent="ttU8PozmgUQWFSr6I-Ll-325" vertex="1">
          <mxGeometry x="80" y="80" width="40" height="40" as="geometry" />
        </mxCell>
        <mxCell id="ttU8PozmgUQWFSr6I-Ll-335" value="" style="group" parent="1" vertex="1" connectable="0">
          <mxGeometry x="280" y="400" width="120" height="120" as="geometry" />
        </mxCell>
        <mxCell id="ttU8PozmgUQWFSr6I-Ll-336" value="&lt;span style=&quot;font-size: 16px;&quot;&gt;&amp;nbsp;&lt;/span&gt;" style="whiteSpace=wrap;html=1;aspect=fixed;container=0;" parent="ttU8PozmgUQWFSr6I-Ll-335" vertex="1">
          <mxGeometry width="40" height="40" as="geometry" />
        </mxCell>
        <mxCell id="ttU8PozmgUQWFSr6I-Ll-337" value="&lt;span style=&quot;font-size: 16px;&quot;&gt;&amp;nbsp;&lt;/span&gt;" style="whiteSpace=wrap;html=1;aspect=fixed;container=0;" parent="ttU8PozmgUQWFSr6I-Ll-335" vertex="1">
          <mxGeometry x="40" width="40" height="40" as="geometry" />
        </mxCell>
        <mxCell id="ttU8PozmgUQWFSr6I-Ll-338" value="&lt;span style=&quot;font-size: 16px;&quot;&gt;&amp;nbsp;&lt;/span&gt;" style="whiteSpace=wrap;html=1;aspect=fixed;container=0;" parent="ttU8PozmgUQWFSr6I-Ll-335" vertex="1">
          <mxGeometry x="80" width="40" height="40" as="geometry" />
        </mxCell>
        <mxCell id="ttU8PozmgUQWFSr6I-Ll-339" value="&lt;span style=&quot;font-size: 16px;&quot;&gt;&amp;nbsp;&lt;/span&gt;" style="whiteSpace=wrap;html=1;aspect=fixed;container=0;" parent="ttU8PozmgUQWFSr6I-Ll-335" vertex="1">
          <mxGeometry y="40" width="40" height="40" as="geometry" />
        </mxCell>
        <mxCell id="ttU8PozmgUQWFSr6I-Ll-340" value="&lt;span style=&quot;font-size: 16px;&quot;&gt;&amp;nbsp;&lt;/span&gt;" style="whiteSpace=wrap;html=1;aspect=fixed;container=0;" parent="ttU8PozmgUQWFSr6I-Ll-335" vertex="1">
          <mxGeometry x="40" y="40" width="40" height="40" as="geometry" />
        </mxCell>
        <mxCell id="ttU8PozmgUQWFSr6I-Ll-341" value="&lt;span style=&quot;font-size: 16px;&quot;&gt;&amp;nbsp;&lt;/span&gt;" style="whiteSpace=wrap;html=1;aspect=fixed;container=0;" parent="ttU8PozmgUQWFSr6I-Ll-335" vertex="1">
          <mxGeometry x="80" y="40" width="40" height="40" as="geometry" />
        </mxCell>
        <mxCell id="ttU8PozmgUQWFSr6I-Ll-342" value="&lt;span style=&quot;font-size: 16px;&quot;&gt;&amp;nbsp;&lt;/span&gt;" style="whiteSpace=wrap;html=1;aspect=fixed;container=0;" parent="ttU8PozmgUQWFSr6I-Ll-335" vertex="1">
          <mxGeometry y="80" width="40" height="40" as="geometry" />
        </mxCell>
        <mxCell id="ttU8PozmgUQWFSr6I-Ll-343" value="&lt;span style=&quot;font-size: 16px;&quot;&gt;&amp;nbsp;&lt;/span&gt;" style="whiteSpace=wrap;html=1;aspect=fixed;container=0;" parent="ttU8PozmgUQWFSr6I-Ll-335" vertex="1">
          <mxGeometry x="40" y="80" width="40" height="40" as="geometry" />
        </mxCell>
        <mxCell id="ttU8PozmgUQWFSr6I-Ll-344" value="&lt;span style=&quot;font-size: 16px;&quot;&gt;&amp;nbsp;&lt;/span&gt;" style="whiteSpace=wrap;html=1;aspect=fixed;container=0;" parent="ttU8PozmgUQWFSr6I-Ll-335" vertex="1">
          <mxGeometry x="80" y="80" width="40" height="40" as="geometry" />
        </mxCell>
        <mxCell id="ttU8PozmgUQWFSr6I-Ll-345" value="" style="group" parent="1" vertex="1" connectable="0">
          <mxGeometry x="400" y="400" width="120" height="120" as="geometry" />
        </mxCell>
        <mxCell id="ttU8PozmgUQWFSr6I-Ll-346" value="&lt;span style=&quot;font-size: 16px;&quot;&gt;&amp;nbsp;&lt;/span&gt;" style="whiteSpace=wrap;html=1;aspect=fixed;container=0;" parent="ttU8PozmgUQWFSr6I-Ll-345" vertex="1">
          <mxGeometry width="40" height="40" as="geometry" />
        </mxCell>
        <mxCell id="ttU8PozmgUQWFSr6I-Ll-347" value="&lt;span style=&quot;font-size: 16px;&quot;&gt;&amp;nbsp;&lt;/span&gt;" style="whiteSpace=wrap;html=1;aspect=fixed;container=0;" parent="ttU8PozmgUQWFSr6I-Ll-345" vertex="1">
          <mxGeometry x="40" width="40" height="40" as="geometry" />
        </mxCell>
        <mxCell id="ttU8PozmgUQWFSr6I-Ll-348" value="&lt;span style=&quot;font-size: 16px;&quot;&gt;&amp;nbsp;&lt;/span&gt;" style="whiteSpace=wrap;html=1;aspect=fixed;container=0;" parent="ttU8PozmgUQWFSr6I-Ll-345" vertex="1">
          <mxGeometry x="80" width="40" height="40" as="geometry" />
        </mxCell>
        <mxCell id="ttU8PozmgUQWFSr6I-Ll-349" value="&lt;span style=&quot;font-size: 16px;&quot;&gt;&amp;nbsp;&lt;/span&gt;" style="whiteSpace=wrap;html=1;aspect=fixed;container=0;" parent="ttU8PozmgUQWFSr6I-Ll-345" vertex="1">
          <mxGeometry y="40" width="40" height="40" as="geometry" />
        </mxCell>
        <mxCell id="ttU8PozmgUQWFSr6I-Ll-350" value="&lt;span style=&quot;font-size: 16px;&quot;&gt;&amp;nbsp;&lt;/span&gt;" style="whiteSpace=wrap;html=1;aspect=fixed;container=0;" parent="ttU8PozmgUQWFSr6I-Ll-345" vertex="1">
          <mxGeometry x="40" y="40" width="40" height="40" as="geometry" />
        </mxCell>
        <mxCell id="ttU8PozmgUQWFSr6I-Ll-351" value="&lt;span style=&quot;font-size: 16px;&quot;&gt;&amp;nbsp;&lt;/span&gt;" style="whiteSpace=wrap;html=1;aspect=fixed;container=0;" parent="ttU8PozmgUQWFSr6I-Ll-345" vertex="1">
          <mxGeometry x="80" y="40" width="40" height="40" as="geometry" />
        </mxCell>
        <mxCell id="ttU8PozmgUQWFSr6I-Ll-352" value="&lt;span style=&quot;font-size: 16px;&quot;&gt;&amp;nbsp;&lt;/span&gt;" style="whiteSpace=wrap;html=1;aspect=fixed;container=0;" parent="ttU8PozmgUQWFSr6I-Ll-345" vertex="1">
          <mxGeometry y="80" width="40" height="40" as="geometry" />
        </mxCell>
        <mxCell id="ttU8PozmgUQWFSr6I-Ll-353" value="&lt;span style=&quot;font-size: 16px;&quot;&gt;&amp;nbsp;&lt;/span&gt;" style="whiteSpace=wrap;html=1;aspect=fixed;container=0;" parent="ttU8PozmgUQWFSr6I-Ll-345" vertex="1">
          <mxGeometry x="40" y="80" width="40" height="40" as="geometry" />
        </mxCell>
        <mxCell id="ttU8PozmgUQWFSr6I-Ll-354" value="&lt;span style=&quot;font-size: 16px;&quot;&gt;&amp;nbsp;&lt;/span&gt;" style="whiteSpace=wrap;html=1;aspect=fixed;container=0;" parent="ttU8PozmgUQWFSr6I-Ll-345" vertex="1">
          <mxGeometry x="80" y="80" width="40" height="40" as="geometry" />
        </mxCell>
        <mxCell id="ttU8PozmgUQWFSr6I-Ll-355" value="" style="group" parent="1" vertex="1" connectable="0">
          <mxGeometry x="280" y="520" width="120" height="120" as="geometry" />
        </mxCell>
        <mxCell id="ttU8PozmgUQWFSr6I-Ll-356" value="&lt;span style=&quot;font-size: 16px;&quot;&gt;&amp;nbsp;&lt;/span&gt;" style="whiteSpace=wrap;html=1;aspect=fixed;container=0;" parent="ttU8PozmgUQWFSr6I-Ll-355" vertex="1">
          <mxGeometry width="40" height="40" as="geometry" />
        </mxCell>
        <mxCell id="ttU8PozmgUQWFSr6I-Ll-357" value="&lt;span style=&quot;font-size: 16px;&quot;&gt;&amp;nbsp;&lt;/span&gt;" style="whiteSpace=wrap;html=1;aspect=fixed;container=0;" parent="ttU8PozmgUQWFSr6I-Ll-355" vertex="1">
          <mxGeometry x="40" width="40" height="40" as="geometry" />
        </mxCell>
        <mxCell id="ttU8PozmgUQWFSr6I-Ll-358" value="&lt;span style=&quot;font-size: 16px;&quot;&gt;&amp;nbsp;&lt;/span&gt;" style="whiteSpace=wrap;html=1;aspect=fixed;container=0;" parent="ttU8PozmgUQWFSr6I-Ll-355" vertex="1">
          <mxGeometry x="80" width="40" height="40" as="geometry" />
        </mxCell>
        <mxCell id="ttU8PozmgUQWFSr6I-Ll-359" value="&lt;span style=&quot;font-size: 16px;&quot;&gt;&amp;nbsp;&lt;/span&gt;" style="whiteSpace=wrap;html=1;aspect=fixed;container=0;" parent="ttU8PozmgUQWFSr6I-Ll-355" vertex="1">
          <mxGeometry y="40" width="40" height="40" as="geometry" />
        </mxCell>
        <mxCell id="ttU8PozmgUQWFSr6I-Ll-360" value="&lt;span style=&quot;font-size: 16px;&quot;&gt;&amp;nbsp;&lt;/span&gt;" style="whiteSpace=wrap;html=1;aspect=fixed;container=0;" parent="ttU8PozmgUQWFSr6I-Ll-355" vertex="1">
          <mxGeometry x="40" y="40" width="40" height="40" as="geometry" />
        </mxCell>
        <mxCell id="ttU8PozmgUQWFSr6I-Ll-361" value="&lt;span style=&quot;font-size: 16px;&quot;&gt;&amp;nbsp;&lt;/span&gt;" style="whiteSpace=wrap;html=1;aspect=fixed;container=0;" parent="ttU8PozmgUQWFSr6I-Ll-355" vertex="1">
          <mxGeometry x="80" y="40" width="40" height="40" as="geometry" />
        </mxCell>
        <mxCell id="ttU8PozmgUQWFSr6I-Ll-362" value="&lt;span style=&quot;font-size: 16px;&quot;&gt;&amp;nbsp;&lt;/span&gt;" style="whiteSpace=wrap;html=1;aspect=fixed;container=0;" parent="ttU8PozmgUQWFSr6I-Ll-355" vertex="1">
          <mxGeometry y="80" width="40" height="40" as="geometry" />
        </mxCell>
        <mxCell id="ttU8PozmgUQWFSr6I-Ll-363" value="&lt;span style=&quot;font-size: 16px;&quot;&gt;&amp;nbsp;&lt;/span&gt;" style="whiteSpace=wrap;html=1;aspect=fixed;container=0;" parent="ttU8PozmgUQWFSr6I-Ll-355" vertex="1">
          <mxGeometry x="40" y="80" width="40" height="40" as="geometry" />
        </mxCell>
        <mxCell id="ttU8PozmgUQWFSr6I-Ll-364" value="&lt;span style=&quot;font-size: 16px;&quot;&gt;&amp;nbsp;&lt;/span&gt;" style="whiteSpace=wrap;html=1;aspect=fixed;container=0;" parent="ttU8PozmgUQWFSr6I-Ll-355" vertex="1">
          <mxGeometry x="80" y="80" width="40" height="40" as="geometry" />
        </mxCell>
        <mxCell id="ttU8PozmgUQWFSr6I-Ll-412" value="" style="endArrow=none;html=1;rounded=0;strokeWidth=3;entryX=0;entryY=0;entryDx=0;entryDy=0;" parent="ttU8PozmgUQWFSr6I-Ll-355" edge="1">
          <mxGeometry width="50" height="50" relative="1" as="geometry">
            <mxPoint y="120" as="sourcePoint" />
            <mxPoint y="-360" as="targetPoint" />
          </mxGeometry>
        </mxCell>
        <mxCell id="ttU8PozmgUQWFSr6I-Ll-365" value="" style="group" parent="1" vertex="1" connectable="0">
          <mxGeometry x="400" y="520" width="120" height="120" as="geometry" />
        </mxCell>
        <mxCell id="ttU8PozmgUQWFSr6I-Ll-366" value="&lt;span style=&quot;font-size: 16px;&quot;&gt;&amp;nbsp;&lt;/span&gt;" style="whiteSpace=wrap;html=1;aspect=fixed;container=0;" parent="ttU8PozmgUQWFSr6I-Ll-365" vertex="1">
          <mxGeometry width="40" height="40" as="geometry" />
        </mxCell>
        <mxCell id="ttU8PozmgUQWFSr6I-Ll-367" value="&lt;span style=&quot;font-size: 16px;&quot;&gt;&amp;nbsp;&lt;/span&gt;" style="whiteSpace=wrap;html=1;aspect=fixed;container=0;" parent="ttU8PozmgUQWFSr6I-Ll-365" vertex="1">
          <mxGeometry x="40" width="40" height="40" as="geometry" />
        </mxCell>
        <mxCell id="ttU8PozmgUQWFSr6I-Ll-368" value="&lt;span style=&quot;font-size: 16px;&quot;&gt;&amp;nbsp;&lt;/span&gt;" style="whiteSpace=wrap;html=1;aspect=fixed;container=0;" parent="ttU8PozmgUQWFSr6I-Ll-365" vertex="1">
          <mxGeometry x="80" width="40" height="40" as="geometry" />
        </mxCell>
        <mxCell id="ttU8PozmgUQWFSr6I-Ll-369" value="&lt;span style=&quot;font-size: 16px;&quot;&gt;&amp;nbsp;&lt;/span&gt;" style="whiteSpace=wrap;html=1;aspect=fixed;container=0;" parent="ttU8PozmgUQWFSr6I-Ll-365" vertex="1">
          <mxGeometry y="40" width="40" height="40" as="geometry" />
        </mxCell>
        <mxCell id="ttU8PozmgUQWFSr6I-Ll-370" value="&lt;span style=&quot;font-size: 16px;&quot;&gt;&amp;nbsp;&lt;/span&gt;" style="whiteSpace=wrap;html=1;aspect=fixed;container=0;" parent="ttU8PozmgUQWFSr6I-Ll-365" vertex="1">
          <mxGeometry x="40" y="40" width="40" height="40" as="geometry" />
        </mxCell>
        <mxCell id="ttU8PozmgUQWFSr6I-Ll-371" value="&lt;span style=&quot;font-size: 16px;&quot;&gt;&amp;nbsp;&lt;/span&gt;" style="whiteSpace=wrap;html=1;aspect=fixed;container=0;" parent="ttU8PozmgUQWFSr6I-Ll-365" vertex="1">
          <mxGeometry x="80" y="40" width="40" height="40" as="geometry" />
        </mxCell>
        <mxCell id="ttU8PozmgUQWFSr6I-Ll-372" value="&lt;span style=&quot;font-size: 16px;&quot;&gt;&amp;nbsp;&lt;/span&gt;" style="whiteSpace=wrap;html=1;aspect=fixed;container=0;" parent="ttU8PozmgUQWFSr6I-Ll-365" vertex="1">
          <mxGeometry y="80" width="40" height="40" as="geometry" />
        </mxCell>
        <mxCell id="ttU8PozmgUQWFSr6I-Ll-373" value="&lt;span style=&quot;font-size: 16px;&quot;&gt;&amp;nbsp;&lt;/span&gt;" style="whiteSpace=wrap;html=1;aspect=fixed;container=0;" parent="ttU8PozmgUQWFSr6I-Ll-365" vertex="1">
          <mxGeometry x="40" y="80" width="40" height="40" as="geometry" />
        </mxCell>
        <mxCell id="ttU8PozmgUQWFSr6I-Ll-374" value="&lt;span style=&quot;font-size: 16px;&quot;&gt;&amp;nbsp;&lt;/span&gt;" style="whiteSpace=wrap;html=1;aspect=fixed;container=0;" parent="ttU8PozmgUQWFSr6I-Ll-365" vertex="1">
          <mxGeometry x="80" y="80" width="40" height="40" as="geometry" />
        </mxCell>
        <mxCell id="ttU8PozmgUQWFSr6I-Ll-413" value="" style="endArrow=none;html=1;rounded=0;strokeWidth=3;entryX=0;entryY=0;entryDx=0;entryDy=0;" parent="ttU8PozmgUQWFSr6I-Ll-365" edge="1">
          <mxGeometry width="50" height="50" relative="1" as="geometry">
            <mxPoint y="120" as="sourcePoint" />
            <mxPoint y="-360" as="targetPoint" />
          </mxGeometry>
        </mxCell>
        <mxCell id="ttU8PozmgUQWFSr6I-Ll-414" value="" style="endArrow=none;html=1;rounded=0;strokeWidth=3;entryX=0;entryY=0;entryDx=0;entryDy=0;" parent="ttU8PozmgUQWFSr6I-Ll-365" edge="1">
          <mxGeometry width="50" height="50" relative="1" as="geometry">
            <mxPoint x="120" y="120" as="sourcePoint" />
            <mxPoint x="120" y="-360" as="targetPoint" />
          </mxGeometry>
        </mxCell>
        <mxCell id="ttU8PozmgUQWFSr6I-Ll-375" value="" style="group" parent="1" vertex="1" connectable="0">
          <mxGeometry x="520" y="520" width="120" height="120" as="geometry" />
        </mxCell>
        <mxCell id="ttU8PozmgUQWFSr6I-Ll-376" value="&lt;span style=&quot;font-size: 16px;&quot;&gt;&amp;nbsp;&lt;/span&gt;" style="whiteSpace=wrap;html=1;aspect=fixed;container=0;" parent="ttU8PozmgUQWFSr6I-Ll-375" vertex="1">
          <mxGeometry width="40" height="40" as="geometry" />
        </mxCell>
        <mxCell id="ttU8PozmgUQWFSr6I-Ll-377" value="&lt;span style=&quot;font-size: 16px;&quot;&gt;&amp;nbsp;&lt;/span&gt;" style="whiteSpace=wrap;html=1;aspect=fixed;container=0;" parent="ttU8PozmgUQWFSr6I-Ll-375" vertex="1">
          <mxGeometry x="40" width="40" height="40" as="geometry" />
        </mxCell>
        <mxCell id="ttU8PozmgUQWFSr6I-Ll-378" value="&lt;span style=&quot;font-size: 16px;&quot;&gt;&amp;nbsp;&lt;/span&gt;" style="whiteSpace=wrap;html=1;aspect=fixed;container=0;" parent="ttU8PozmgUQWFSr6I-Ll-375" vertex="1">
          <mxGeometry x="80" width="40" height="40" as="geometry" />
        </mxCell>
        <mxCell id="ttU8PozmgUQWFSr6I-Ll-379" value="&lt;span style=&quot;font-size: 16px;&quot;&gt;&amp;nbsp;&lt;/span&gt;" style="whiteSpace=wrap;html=1;aspect=fixed;container=0;" parent="ttU8PozmgUQWFSr6I-Ll-375" vertex="1">
          <mxGeometry y="40" width="40" height="40" as="geometry" />
        </mxCell>
        <mxCell id="ttU8PozmgUQWFSr6I-Ll-380" value="&lt;span style=&quot;font-size: 16px;&quot;&gt;&amp;nbsp;&lt;/span&gt;" style="whiteSpace=wrap;html=1;aspect=fixed;container=0;" parent="ttU8PozmgUQWFSr6I-Ll-375" vertex="1">
          <mxGeometry x="40" y="40" width="40" height="40" as="geometry" />
        </mxCell>
        <mxCell id="ttU8PozmgUQWFSr6I-Ll-381" value="&lt;span style=&quot;font-size: 16px;&quot;&gt;&amp;nbsp;&lt;/span&gt;" style="whiteSpace=wrap;html=1;aspect=fixed;container=0;" parent="ttU8PozmgUQWFSr6I-Ll-375" vertex="1">
          <mxGeometry x="80" y="40" width="40" height="40" as="geometry" />
        </mxCell>
        <mxCell id="ttU8PozmgUQWFSr6I-Ll-382" value="&lt;span style=&quot;font-size: 16px;&quot;&gt;&amp;nbsp;&lt;/span&gt;" style="whiteSpace=wrap;html=1;aspect=fixed;container=0;" parent="ttU8PozmgUQWFSr6I-Ll-375" vertex="1">
          <mxGeometry y="80" width="40" height="40" as="geometry" />
        </mxCell>
        <mxCell id="ttU8PozmgUQWFSr6I-Ll-383" value="&lt;span style=&quot;font-size: 16px;&quot;&gt;&amp;nbsp;&lt;/span&gt;" style="whiteSpace=wrap;html=1;aspect=fixed;container=0;" parent="ttU8PozmgUQWFSr6I-Ll-375" vertex="1">
          <mxGeometry x="40" y="80" width="40" height="40" as="geometry" />
        </mxCell>
        <mxCell id="ttU8PozmgUQWFSr6I-Ll-384" value="&lt;span style=&quot;font-size: 16px;&quot;&gt;&amp;nbsp;&lt;/span&gt;" style="whiteSpace=wrap;html=1;aspect=fixed;container=0;" parent="ttU8PozmgUQWFSr6I-Ll-375" vertex="1">
          <mxGeometry x="80" y="80" width="40" height="40" as="geometry" />
        </mxCell>
        <mxCell id="ttU8PozmgUQWFSr6I-Ll-420" value="" style="endArrow=none;html=1;rounded=0;strokeWidth=3;" parent="ttU8PozmgUQWFSr6I-Ll-375" edge="1">
          <mxGeometry width="50" height="50" relative="1" as="geometry">
            <mxPoint x="120" y="118.81999999999994" as="sourcePoint" />
            <mxPoint x="-360" y="118.81999999999994" as="targetPoint" />
          </mxGeometry>
        </mxCell>
        <mxCell id="ttU8PozmgUQWFSr6I-Ll-385" value="" style="group" parent="1" vertex="1" connectable="0">
          <mxGeometry x="520" y="280" width="120" height="120" as="geometry" />
        </mxCell>
        <mxCell id="ttU8PozmgUQWFSr6I-Ll-386" value="&lt;span style=&quot;font-size: 16px;&quot;&gt;&amp;nbsp;&lt;/span&gt;" style="whiteSpace=wrap;html=1;aspect=fixed;container=0;" parent="ttU8PozmgUQWFSr6I-Ll-385" vertex="1">
          <mxGeometry width="40" height="40" as="geometry" />
        </mxCell>
        <mxCell id="ttU8PozmgUQWFSr6I-Ll-387" value="&lt;span style=&quot;font-size: 16px;&quot;&gt;&amp;nbsp;&lt;/span&gt;" style="whiteSpace=wrap;html=1;aspect=fixed;container=0;" parent="ttU8PozmgUQWFSr6I-Ll-385" vertex="1">
          <mxGeometry x="40" width="40" height="40" as="geometry" />
        </mxCell>
        <mxCell id="ttU8PozmgUQWFSr6I-Ll-388" value="&lt;span style=&quot;font-size: 16px;&quot;&gt;&amp;nbsp;&lt;/span&gt;" style="whiteSpace=wrap;html=1;aspect=fixed;container=0;" parent="ttU8PozmgUQWFSr6I-Ll-385" vertex="1">
          <mxGeometry x="80" width="40" height="40" as="geometry" />
        </mxCell>
        <mxCell id="ttU8PozmgUQWFSr6I-Ll-389" value="&lt;span style=&quot;font-size: 16px;&quot;&gt;&amp;nbsp;&lt;/span&gt;" style="whiteSpace=wrap;html=1;aspect=fixed;container=0;" parent="ttU8PozmgUQWFSr6I-Ll-385" vertex="1">
          <mxGeometry y="40" width="40" height="40" as="geometry" />
        </mxCell>
        <mxCell id="ttU8PozmgUQWFSr6I-Ll-390" value="&lt;span style=&quot;font-size: 16px;&quot;&gt;&amp;nbsp;&lt;/span&gt;" style="whiteSpace=wrap;html=1;aspect=fixed;container=0;" parent="ttU8PozmgUQWFSr6I-Ll-385" vertex="1">
          <mxGeometry x="40" y="40" width="40" height="40" as="geometry" />
        </mxCell>
        <mxCell id="ttU8PozmgUQWFSr6I-Ll-391" value="&lt;span style=&quot;font-size: 16px;&quot;&gt;&amp;nbsp;&lt;/span&gt;" style="whiteSpace=wrap;html=1;aspect=fixed;container=0;" parent="ttU8PozmgUQWFSr6I-Ll-385" vertex="1">
          <mxGeometry x="80" y="40" width="40" height="40" as="geometry" />
        </mxCell>
        <mxCell id="ttU8PozmgUQWFSr6I-Ll-392" value="&lt;span style=&quot;font-size: 16px;&quot;&gt;&amp;nbsp;&lt;/span&gt;" style="whiteSpace=wrap;html=1;aspect=fixed;container=0;" parent="ttU8PozmgUQWFSr6I-Ll-385" vertex="1">
          <mxGeometry y="80" width="40" height="40" as="geometry" />
        </mxCell>
        <mxCell id="ttU8PozmgUQWFSr6I-Ll-393" value="&lt;span style=&quot;font-size: 16px;&quot;&gt;&amp;nbsp;&lt;/span&gt;" style="whiteSpace=wrap;html=1;aspect=fixed;container=0;" parent="ttU8PozmgUQWFSr6I-Ll-385" vertex="1">
          <mxGeometry x="40" y="80" width="40" height="40" as="geometry" />
        </mxCell>
        <mxCell id="ttU8PozmgUQWFSr6I-Ll-394" value="&lt;span style=&quot;font-size: 16px;&quot;&gt;&amp;nbsp;&lt;/span&gt;" style="whiteSpace=wrap;html=1;aspect=fixed;container=0;" parent="ttU8PozmgUQWFSr6I-Ll-385" vertex="1">
          <mxGeometry x="80" y="80" width="40" height="40" as="geometry" />
        </mxCell>
        <mxCell id="ttU8PozmgUQWFSr6I-Ll-417" value="" style="endArrow=none;html=1;rounded=0;strokeWidth=3;" parent="ttU8PozmgUQWFSr6I-Ll-385" edge="1">
          <mxGeometry width="50" height="50" relative="1" as="geometry">
            <mxPoint x="120" as="sourcePoint" />
            <mxPoint x="-360" as="targetPoint" />
          </mxGeometry>
        </mxCell>
        <mxCell id="ttU8PozmgUQWFSr6I-Ll-418" value="" style="endArrow=none;html=1;rounded=0;strokeWidth=3;" parent="ttU8PozmgUQWFSr6I-Ll-385" edge="1">
          <mxGeometry width="50" height="50" relative="1" as="geometry">
            <mxPoint x="120" y="120" as="sourcePoint" />
            <mxPoint x="-360" y="120" as="targetPoint" />
          </mxGeometry>
        </mxCell>
        <mxCell id="ttU8PozmgUQWFSr6I-Ll-395" value="" style="group" parent="1" vertex="1" connectable="0">
          <mxGeometry x="520" y="400" width="120" height="320" as="geometry" />
        </mxCell>
        <mxCell id="ttU8PozmgUQWFSr6I-Ll-396" value="&lt;span style=&quot;font-size: 16px;&quot;&gt;&amp;nbsp;&lt;/span&gt;" style="whiteSpace=wrap;html=1;aspect=fixed;container=0;" parent="ttU8PozmgUQWFSr6I-Ll-395" vertex="1">
          <mxGeometry width="40" height="40" as="geometry" />
        </mxCell>
        <mxCell id="ttU8PozmgUQWFSr6I-Ll-397" value="&lt;span style=&quot;font-size: 16px;&quot;&gt;&amp;nbsp;&lt;/span&gt;" style="whiteSpace=wrap;html=1;aspect=fixed;container=0;" parent="ttU8PozmgUQWFSr6I-Ll-395" vertex="1">
          <mxGeometry x="40" width="40" height="40" as="geometry" />
        </mxCell>
        <mxCell id="ttU8PozmgUQWFSr6I-Ll-398" value="&lt;span style=&quot;font-size: 16px;&quot;&gt;&amp;nbsp;&lt;/span&gt;" style="whiteSpace=wrap;html=1;aspect=fixed;container=0;" parent="ttU8PozmgUQWFSr6I-Ll-395" vertex="1">
          <mxGeometry x="80" width="40" height="40" as="geometry" />
        </mxCell>
        <mxCell id="ttU8PozmgUQWFSr6I-Ll-399" value="&lt;span style=&quot;font-size: 16px;&quot;&gt;&amp;nbsp;&lt;/span&gt;" style="whiteSpace=wrap;html=1;aspect=fixed;container=0;" parent="ttU8PozmgUQWFSr6I-Ll-395" vertex="1">
          <mxGeometry y="40" width="40" height="40" as="geometry" />
        </mxCell>
        <mxCell id="ttU8PozmgUQWFSr6I-Ll-400" value="&lt;span style=&quot;font-size: 16px;&quot;&gt;&amp;nbsp;&lt;/span&gt;" style="whiteSpace=wrap;html=1;aspect=fixed;container=0;" parent="ttU8PozmgUQWFSr6I-Ll-395" vertex="1">
          <mxGeometry x="40" y="40" width="40" height="40" as="geometry" />
        </mxCell>
        <mxCell id="ttU8PozmgUQWFSr6I-Ll-401" value="&lt;span style=&quot;font-size: 16px;&quot;&gt;&amp;nbsp;&lt;/span&gt;" style="whiteSpace=wrap;html=1;aspect=fixed;container=0;" parent="ttU8PozmgUQWFSr6I-Ll-395" vertex="1">
          <mxGeometry x="80" y="40" width="40" height="40" as="geometry" />
        </mxCell>
        <mxCell id="ttU8PozmgUQWFSr6I-Ll-402" value="&lt;span style=&quot;font-size: 16px;&quot;&gt;&amp;nbsp;&lt;/span&gt;" style="whiteSpace=wrap;html=1;aspect=fixed;container=0;" parent="ttU8PozmgUQWFSr6I-Ll-395" vertex="1">
          <mxGeometry y="80" width="40" height="40" as="geometry" />
        </mxCell>
        <mxCell id="ttU8PozmgUQWFSr6I-Ll-403" value="&lt;span style=&quot;font-size: 16px;&quot;&gt;&amp;nbsp;&lt;/span&gt;" style="whiteSpace=wrap;html=1;aspect=fixed;container=0;" parent="ttU8PozmgUQWFSr6I-Ll-395" vertex="1">
          <mxGeometry x="40" y="80" width="40" height="40" as="geometry" />
        </mxCell>
        <mxCell id="ttU8PozmgUQWFSr6I-Ll-404" value="&lt;span style=&quot;font-size: 16px;&quot;&gt;&amp;nbsp;&lt;/span&gt;" style="whiteSpace=wrap;html=1;aspect=fixed;container=0;" parent="ttU8PozmgUQWFSr6I-Ll-395" vertex="1">
          <mxGeometry x="80" y="80" width="40" height="40" as="geometry" />
        </mxCell>
        <mxCell id="ttU8PozmgUQWFSr6I-Ll-415" value="" style="endArrow=none;html=1;rounded=0;strokeWidth=3;entryX=0;entryY=0;entryDx=0;entryDy=0;" parent="ttU8PozmgUQWFSr6I-Ll-395" edge="1">
          <mxGeometry width="50" height="50" relative="1" as="geometry">
            <mxPoint x="118.81999999999994" y="240" as="sourcePoint" />
            <mxPoint x="118.81999999999994" y="-240" as="targetPoint" />
          </mxGeometry>
        </mxCell>
        <mxCell id="ttU8PozmgUQWFSr6I-Ll-419" value="" style="endArrow=none;html=1;rounded=0;strokeWidth=3;" parent="ttU8PozmgUQWFSr6I-Ll-395" edge="1">
          <mxGeometry width="50" height="50" relative="1" as="geometry">
            <mxPoint x="120" y="120" as="sourcePoint" />
            <mxPoint x="-360" y="120" as="targetPoint" />
          </mxGeometry>
        </mxCell>
        <mxCell id="ttU8PozmgUQWFSr6I-Ll-407" value="" style="endArrow=none;html=1;rounded=0;strokeWidth=3;entryX=0;entryY=0;entryDx=0;entryDy=0;" parent="1" target="ttU8PozmgUQWFSr6I-Ll-254" edge="1">
          <mxGeometry width="50" height="50" relative="1" as="geometry">
            <mxPoint x="160" y="640" as="sourcePoint" />
            <mxPoint x="850" y="360" as="targetPoint" />
          </mxGeometry>
        </mxCell>
        <mxCell id="ttU8PozmgUQWFSr6I-Ll-416" value="" style="endArrow=none;html=1;rounded=0;strokeWidth=3;" parent="1" edge="1">
          <mxGeometry width="50" height="50" relative="1" as="geometry">
            <mxPoint x="640" y="160" as="sourcePoint" />
            <mxPoint x="160" y="160" as="targetPoint" />
          </mxGeometry>
        </mxCell>
      </root>
    </mxGraphModel>
  </diagram>
</mxfile>
